<?xml version="1.0" encoding="UTF-8" standalone="no"?>
<svg
   xmlns:dc="http://purl.org/dc/elements/1.1/"
   xmlns:cc="http://creativecommons.org/ns#"
   xmlns:rdf="http://www.w3.org/1999/02/22-rdf-syntax-ns#"
   xmlns:svg="http://www.w3.org/2000/svg"
   xmlns="http://www.w3.org/2000/svg"
   xmlns:sodipodi="http://sodipodi.sourceforge.net/DTD/sodipodi-0.dtd"
   xmlns:inkscape="http://www.inkscape.org/namespaces/inkscape"
   width="42.504551mm"
   height="81.4114mm"
   viewBox="0 0 42.504551 81.4114"
   version="1.1"
   id="svg8"
   inkscape:version="1.0.1 (3bc2e813f5, 2020-09-07)"
   sodipodi:docname="bat_dark.svg">
  <defs
     id="defs2" />
  <sodipodi:namedview
     id="base"
     pagecolor="#ffffff"
     bordercolor="#666666"
     borderopacity="1.0"
     inkscape:pageopacity="0.0"
     inkscape:pageshadow="2"
     inkscape:zoom="0.98994949"
     inkscape:cx="10.605708"
     inkscape:cy="170.01331"
     inkscape:document-units="mm"
     inkscape:current-layer="g905"
     inkscape:document-rotation="0"
     showgrid="false"
     inkscape:window-width="1302"
     inkscape:window-height="745"
     inkscape:window-x="56"
     inkscape:window-y="-8"
     inkscape:window-maximized="1" />
  <metadata
     id="metadata5">
    <rdf:RDF>
      <cc:Work
         rdf:about="">
        <dc:format>image/svg+xml</dc:format>
        <dc:type
           rdf:resource="http://purl.org/dc/dcmitype/StillImage" />
        <dc:title></dc:title>
      </cc:Work>
    </rdf:RDF>
  </metadata>
  <g
     inkscape:label="Layer 1"
     inkscape:groupmode="layer"
     id="layer1"
     transform="translate(-81.022943,-96.39358)">
    <g
       id="g905"
       transform="translate(18.89881,-1.5119047)">
      <g
         id="g920">
        <g
           id="g888"
           transform="matrix(0.65599766,0,0,0.66108621,21.615024,34.566235)"
           style="stroke-width:1.67942;stroke-miterlimit:4;stroke-dasharray:none">
          <path
             id="path872"
             style="fill:#4d4d4d;stroke:#000000;stroke-width:1.67942;stroke-linecap:butt;stroke-linejoin:miter;stroke-miterlimit:4;stroke-dasharray:none;stroke-opacity:1"
             d="m 93.200576,97.460367 0.139929,10.492193 c -4.575384,11.37727 -18.183326,44.46226 -24.182649,50.7254 -7.267373,7.58694 -4.844975,34.29312 -0.605674,37.32791 4.239302,3.03477 22.707588,-3.48443 22.707588,-3.48443 l 0.50383,-1.44722 h 6.68932 l 0.503832,1.44722 c 0,0 18.468688,6.5192 22.707998,3.48443 4.2393,-3.03479 6.6617,-29.74097 -0.60568,-37.32791 -5.99932,-6.26315 -19.60769,-39.34816 -24.183054,-50.7254 l 0.139931,-10.492193 -1.907686,1.36547 z"
             sodipodi:nodetypes="ccssccccsscccc" />
          <path
             id="path881"
             style="fill:#1a1a1a;stroke:#000000;stroke-width:6.3474;stroke-linecap:butt;stroke-linejoin:miter;stroke-miterlimit:4;stroke-dasharray:none;stroke-opacity:1"
             d="m 393.20233,471.87923 c 0,0 -4.63119,23.83591 -16.05975,36.69304 C 365.71401,521.42942 330,542.85742 330,542.85742 c 0,0 -44.37968,26.95726 -62.76993,44.96327 -7.08273,6.93475 -14.95786,14.31477 -17.82345,23.80393 -3.05772,10.12541 -10.23915,32.14387 -11.88336,49.14334 -2.86405,29.61122 0.36079,49.05615 12.82282,79.56408 4.94991,12.11773 38.74529,6.39295 38.74529,6.39295 0,0 103.35739,-24.5754 138.05121,-61.01015 C 440.86411,671.30477 444.9396,649.5636 448.57227,630 c 3.04274,-16.38657 2.89205,-33.58617 0,-50 -1.93429,-10.97809 -6.49029,-21.43462 -11.42969,-31.42773 -6.26301,-12.67098 -16.46472,-23.1088 -22.85742,-35.71485 -7.15921,-14.11758 -21.08283,-40.97819 -21.08283,-40.97819 z"
             transform="scale(0.26458333)"
             sodipodi:nodetypes="cscassscsssssc" />
        </g>
        <path
           style="fill:#000000;stroke:none;stroke-width:0.264583px;stroke-linecap:butt;stroke-linejoin:miter;stroke-opacity:1"
           d="m 64.835788,151.46632 c 0,0 18.347102,-11.79785 23.692492,-27.16584 5.345391,-15.368 0.961289,29.60958 -3.647276,34.11485 -4.914967,4.8048 -15.985927,6.20331 -19.769593,-5.98851 l -0.07517,-0.24221 z"
           id="path890"
           sodipodi:nodetypes="cssscc" />
        <g
           id="g870"
           transform="matrix(0.65599766,0,0,0.66108621,22.456433,34.566235)"
           style="stroke-width:1.67942;stroke-miterlimit:4;stroke-dasharray:none">
          <g
             id="g852"
             transform="translate(-8.6934524,6.2366071)"
             style="stroke-width:3.4874;stroke-miterlimit:4;stroke-dasharray:none">
            <path
               id="path833"
               style="opacity:0.999;fill:#4d4d4d;stroke:#000000;stroke-width:3.4874;stroke-linecap:round;stroke-miterlimit:4;stroke-dasharray:none;paint-order:markers stroke fill"
               d="m 102.51927,171.5732 a 7.7508163,8.8198938 0 0 0 -7.657925,7.46156 16.30344,13.49711 0 0 0 -8.64546,11.91555 16.30344,13.49711 0 0 0 16.303385,13.49685 16.30344,13.49711 0 0 0 16.3034,-13.49685 16.30344,13.49711 0 0 0 -8.64495,-11.91503 7.7508163,8.8198938 0 0 0 -7.65845,-7.46208 z" />
            <g
               id="g846"
               transform="translate(-0.40949754,-1.5875)"
               style="fill:#000000;stroke-width:3.4874;stroke-miterlimit:4;stroke-dasharray:none">
              <path
                 style="fill:#000000;stroke:#000000;stroke-width:1.63924;stroke-linecap:butt;stroke-linejoin:miter;stroke-miterlimit:4;stroke-dasharray:none;stroke-opacity:1"
                 d="m 107.55587,186.42511 c 0,0 0.17276,3.00695 6.30089,5.69348 6.12813,2.68653 -7.70227,-1.19248 -7.70227,-1.19248 z"
                 id="path840" />
              <path
                 style="fill:#000000;stroke:#000000;stroke-width:1.63924;stroke-linecap:butt;stroke-linejoin:miter;stroke-miterlimit:4;stroke-dasharray:none;stroke-opacity:1"
                 d="m 98.301681,186.42511 c 0,0 -0.17276,3.00695 -6.300891,5.69348 -6.12813,2.68653 7.702271,-1.19248 7.702271,-1.19248 z"
                 id="path842" />
            </g>
          </g>
          <g
             id="g860"
             transform="translate(0.1971481)"
             style="stroke-width:1.67942;stroke-miterlimit:4;stroke-dasharray:none">
            <path
               style="fill:#4d4d4d;stroke:#000000;stroke-width:1.67942;stroke-linecap:butt;stroke-linejoin:miter;stroke-miterlimit:4;stroke-dasharray:none;stroke-opacity:1"
               d="m 105.31864,202.9298 c 0,0 5.38568,1.98049 5.54135,6.6108 0.15567,4.63031 0.25982,8.14861 0.25982,8.14861 0,0 -2.26525,-0.93294 -3.80912,-2.23147 -1.54388,-1.29852 -4.06661,-3.45606 -4.97805,-5.87898 -0.59396,-1.57894 -0.11903,-5.10912 -0.11903,-5.10912 z"
               id="path854"
               sodipodi:nodetypes="cscsacc" />
            <path
               style="fill:#4d4d4d;stroke:#000000;stroke-width:1.67942;stroke-linecap:butt;stroke-linejoin:miter;stroke-miterlimit:4;stroke-dasharray:none;stroke-opacity:1"
               d="m 81.938714,202.9298 c 0,0 -5.38568,1.98049 -5.54135,6.6108 -0.15567,4.63031 -0.25982,8.14861 -0.25982,8.14861 0,0 2.26525,-0.93294 3.80912,-2.23147 1.54388,-1.29852 4.06661,-3.45606 4.97805,-5.87898 0.59396,-1.57894 0.11903,-5.10912 0.11903,-5.10912 z"
               id="path856"
               sodipodi:nodetypes="cscsacc" />
          </g>
        </g>
      </g>
    </g>
  </g>
</svg>
